<svg xmlns="http://www.w3.org/2000/svg" viewBox="0 0 516.95 76.71"><defs><style>.cls-1{fill:#fff;}.cls-2{fill:#ff8e0a;}</style></defs><g id="Capa_2" data-name="Capa 2"><g id="Layer_1" data-name="Layer 1"><path class="cls-1" d="M367.11,61.24q-7.73,15.46-25.47,15.47c-8.17,0-14.94-2.58-20.42-7.73s-8.06-12-8.06-20.41,2.8-14.92,8.38-20.19a28.29,28.29,0,0,1,20.1-7.94q17.58,0,24.83,14.49l-13,8.7c-2.68-5.58-6.55-8.37-11.82-8.37-7.2,0-12.14,5.15-12.14,13.31s4.73,13.32,12,13.32c5.38,0,9.46-3.12,12.26-9.24Z"/><path class="cls-1" d="M429.32,48.57c0,8.92-2.9,15.79-8.7,20.73a33.19,33.19,0,0,1-41.81,0c-5.7-4.94-8.6-11.81-8.6-20.73s2.9-15.78,8.6-20.72a31.17,31.17,0,0,1,20.85-7.41,30.81,30.81,0,0,1,21,7.52Q429.32,35.21,429.32,48.57ZM399.66,61.46A13.75,13.75,0,0,0,409,58a11.85,11.85,0,0,0,4-9.45c0-4-1.29-7.08-4-9.34a14,14,0,0,0-18.59,0,11.76,11.76,0,0,0-3.87,9.34A12.13,12.13,0,0,0,390.42,58,13.65,13.65,0,0,0,399.66,61.46Z"/><path class="cls-1" d="M437.39,75.21V21.94h16.12V75.21Z"/><path class="cls-1" d="M517,75.21H500.83v-29c0-6.34-3.12-10.52-9.46-10.52s-10.75,5.37-10.75,13.85V75.21H464.5V21.94h16.12v7.63c4.41-6.13,10.1-9.13,17.3-9.13,11.93,0,19,7.41,19,18.47Z"/><path class="cls-2" d="M119.11,75.21c-1.5-1.51-2.36-3.76-2.58-6.88a18.88,18.88,0,0,1-16.33,8.38c-11.72,0-18.81-7-18.81-17,0-10.2,8.28-15.68,20.85-17.72l13.54-2.15v-1c0-5.16-2.79-7.73-8.27-7.73-4.84,0-8.17,1.82-8.17,4.83a3.24,3.24,0,0,0,.1,1L84.83,41.91A22.81,22.81,0,0,1,84,36.76C84,31.93,86.23,28,90.63,25s10.1-4.51,16.88-4.51c16.22,0,24.39,6.76,24.39,20.19V62q0,8.06,3.55,13.21Zm-6.77-14.82a13.8,13.8,0,0,0,3.44-9.13v-1l-11.39,1.93c-4.84.76-7.31,2.9-7.31,6.45,0,3,2.58,5.58,6.45,5.58A11.13,11.13,0,0,0,112.34,60.39Z"/><path class="cls-2" d="M194.65,75.21H178.53v-29c0-6.34-3.12-10.52-9.46-10.52s-10.75,5.37-10.75,13.85V75.21H142.2V21.94h16.12v7.63c4.41-6.13,10.11-9.13,17.31-9.13,11.93,0,19,7.41,19,18.47Z"/><path class="cls-2" d="M256.67,52.55H217.23C218.09,59,223.46,63,230,63q8.55,0,13.54-8.37l11.61,6.55c-5,10.41-13.65,15.57-25.8,15.57A27.08,27.08,0,0,1,210,68.76c-5.38-5.26-8.06-12-8.06-20.19s2.68-15,8.06-20.29,12.14-7.84,20.42-7.84c7.84,0,14.08,2.57,18.91,7.73a26.33,26.33,0,0,1,7.31,18.9Zm-38.8-11.28h24.29c-1.29-5.26-5.91-8.38-12-8.38C224.21,32.89,219.59,36,217.87,41.27Z"/><path class="cls-2" d="M276.56,21.94l7.2,11.17L291,21.94h18.38L293.22,46.75l18.59,28.46h-18.7l-9.35-15.68-9.57,15.68H256l19.24-28.14L258.72,21.94Z"/><path class="cls-2" d="M62.37,34.18c6.34-3.86,9.78-8.37,9.78-15.68C72.15,6.91,62.69,0,47.11,0H34.83L0,0V13.56h17.4V28.63H0V42.19H17.42V61.64H0V75.21H48.18c7.63,0,14-2,19.24-6.13s7.85-9.55,7.85-16.43C75.27,44,71,37.83,62.37,34.18ZM46.79,13.56c5.91,0,9.24,2.69,9.24,7.31s-3.54,7.51-9.24,7.51h-12V13.56Zm.86,47.26H34.83V42.56H47.65c7.41,0,11,3.54,11,9.23Q58.61,60.82,47.65,60.82Z"/></g></g></svg>